<mxfile host="app.diagrams.net" agent="Mozilla/5.0 (Windows NT 10.0; Win64; x64) AppleWebKit/537.36 (KHTML, like Gecko) Chrome/135.0.0.0 Safari/537.36 Edg/135.0.0.0" version="26.1.3">
  <diagram id="C5RBs43oDa-KdzZeNtuy" name="Page-1">
    <mxGraphModel dx="1268" dy="595" grid="1" gridSize="10" guides="1" tooltips="1" connect="1" arrows="1" fold="1" page="1" pageScale="1" pageWidth="827" pageHeight="1169" background="none" math="0" shadow="1">
      <root>
        <mxCell id="WIyWlLk6GJQsqaUBKTNV-0" />
        <mxCell id="WIyWlLk6GJQsqaUBKTNV-1" parent="WIyWlLk6GJQsqaUBKTNV-0" />
        <mxCell id="Meddw2bvtDSw4ibT4j4O-92" value="图像输入" style="whiteSpace=wrap;strokeWidth=2;rounded=1;glass=0;shadow=1;fontFamily=宋体;arcSize=50;" vertex="1" parent="WIyWlLk6GJQsqaUBKTNV-1">
          <mxGeometry x="130" y="128.5" width="80" height="37" as="geometry" />
        </mxCell>
        <mxCell id="Meddw2bvtDSw4ibT4j4O-93" value="OpenCV预处理" style="whiteSpace=wrap;strokeWidth=2;shadow=1;gradientColor=none;rounded=1;" vertex="1" parent="WIyWlLk6GJQsqaUBKTNV-1">
          <mxGeometry x="248" y="120" width="116" height="54" as="geometry" />
        </mxCell>
        <mxCell id="Meddw2bvtDSw4ibT4j4O-94" value="COLMAP三维重建" style="whiteSpace=wrap;strokeWidth=2;shadow=1;rounded=1;" vertex="1" parent="WIyWlLk6GJQsqaUBKTNV-1">
          <mxGeometry x="414" y="120" width="118" height="54" as="geometry" />
        </mxCell>
        <mxCell id="Meddw2bvtDSw4ibT4j4O-95" value="Open3D可视化" style="whiteSpace=wrap;strokeWidth=2;shadow=1;rounded=1;" vertex="1" parent="WIyWlLk6GJQsqaUBKTNV-1">
          <mxGeometry x="582" y="120" width="115" height="54" as="geometry" />
        </mxCell>
        <mxCell id="Meddw2bvtDSw4ibT4j4O-96" value="模型输出" style="whiteSpace=wrap;strokeWidth=2;shadow=1;rounded=1;arcSize=50;" vertex="1" parent="WIyWlLk6GJQsqaUBKTNV-1">
          <mxGeometry x="730" y="128.5" width="80" height="37" as="geometry" />
        </mxCell>
        <mxCell id="Meddw2bvtDSw4ibT4j4O-109" style="edgeStyle=orthogonalEdgeStyle;rounded=1;orthogonalLoop=1;jettySize=auto;html=1;exitX=0.5;exitY=0;exitDx=0;exitDy=0;entryX=0.5;entryY=1;entryDx=0;entryDy=0;shadow=1;" edge="1" parent="WIyWlLk6GJQsqaUBKTNV-1" source="Meddw2bvtDSw4ibT4j4O-97" target="Meddw2bvtDSw4ibT4j4O-94">
          <mxGeometry relative="1" as="geometry" />
        </mxCell>
        <mxCell id="Meddw2bvtDSw4ibT4j4O-97" value="PySide6 GUI控制" style="whiteSpace=wrap;strokeWidth=2;shadow=1;glass=0;rounded=1;" vertex="1" parent="WIyWlLk6GJQsqaUBKTNV-1">
          <mxGeometry x="384" y="210" width="178" height="54" as="geometry" />
        </mxCell>
        <mxCell id="Meddw2bvtDSw4ibT4j4O-98" value="" style="curved=1;startArrow=none;endArrow=block;exitX=1;exitY=0.5;entryX=0;entryY=0.5;rounded=1;entryDx=0;entryDy=0;shadow=1;" edge="1" parent="WIyWlLk6GJQsqaUBKTNV-1" source="Meddw2bvtDSw4ibT4j4O-92" target="Meddw2bvtDSw4ibT4j4O-93">
          <mxGeometry relative="1" as="geometry">
            <Array as="points" />
          </mxGeometry>
        </mxCell>
        <mxCell id="Meddw2bvtDSw4ibT4j4O-99" value="" style="curved=1;startArrow=none;endArrow=block;exitX=1;exitY=0.5;entryX=0;entryY=0.5;rounded=1;entryDx=0;entryDy=0;shadow=1;" edge="1" parent="WIyWlLk6GJQsqaUBKTNV-1" source="Meddw2bvtDSw4ibT4j4O-93" target="Meddw2bvtDSw4ibT4j4O-94">
          <mxGeometry relative="1" as="geometry">
            <Array as="points">
              <mxPoint x="389" y="147" />
            </Array>
          </mxGeometry>
        </mxCell>
        <mxCell id="Meddw2bvtDSw4ibT4j4O-100" value="" style="curved=1;startArrow=none;endArrow=block;exitX=1;exitY=0.5;entryX=0;entryY=0.5;rounded=1;entryDx=0;entryDy=0;shadow=1;" edge="1" parent="WIyWlLk6GJQsqaUBKTNV-1">
          <mxGeometry relative="1" as="geometry">
            <Array as="points" />
            <mxPoint x="532" y="146.47" as="sourcePoint" />
            <mxPoint x="582" y="146.47" as="targetPoint" />
          </mxGeometry>
        </mxCell>
        <mxCell id="Meddw2bvtDSw4ibT4j4O-101" value="" style="curved=1;startArrow=none;endArrow=block;exitX=1;exitY=0.5;entryX=0;entryY=0.5;rounded=1;shadow=1;" edge="1" parent="WIyWlLk6GJQsqaUBKTNV-1" source="Meddw2bvtDSw4ibT4j4O-95" target="Meddw2bvtDSw4ibT4j4O-96">
          <mxGeometry relative="1" as="geometry">
            <Array as="points" />
          </mxGeometry>
        </mxCell>
        <mxCell id="Meddw2bvtDSw4ibT4j4O-102" value="" style="startArrow=none;endArrow=block;exitX=0;exitY=0.5;entryX=0.04;entryY=1;rounded=1;edgeStyle=orthogonalEdgeStyle;exitDx=0;exitDy=0;shadow=1;" edge="1" parent="WIyWlLk6GJQsqaUBKTNV-1" source="Meddw2bvtDSw4ibT4j4O-97">
          <mxGeometry relative="1" as="geometry">
            <mxPoint x="550.2099999999999" y="350" as="sourcePoint" />
            <mxPoint x="300.0099999999999" y="174" as="targetPoint" />
          </mxGeometry>
        </mxCell>
        <mxCell id="Meddw2bvtDSw4ibT4j4O-104" value="" style="startArrow=none;endArrow=block;exitX=1;exitY=0.5;entryX=0.5;entryY=1;rounded=1;entryDx=0;entryDy=0;exitDx=0;exitDy=0;edgeStyle=orthogonalEdgeStyle;shadow=1;" edge="1" parent="WIyWlLk6GJQsqaUBKTNV-1" source="Meddw2bvtDSw4ibT4j4O-97" target="Meddw2bvtDSw4ibT4j4O-95">
          <mxGeometry relative="1" as="geometry">
            <mxPoint x="605" y="456.6600000000001" as="sourcePoint" />
            <mxPoint x="700.8499999999999" y="360" as="targetPoint" />
          </mxGeometry>
        </mxCell>
      </root>
    </mxGraphModel>
  </diagram>
</mxfile>
